<?xml version="1.0" encoding="iso-8859-1"?>
<!-- Generator: Adobe Illustrator 19.0.0, SVG Export Plug-In . SVG Version: 6.00 Build 0)  -->
<svg version="1.1" id="Layer_1" xmlns="http://www.w3.org/2000/svg" xmlns:xlink="http://www.w3.org/1999/xlink" x="0px" y="0px"
	 viewBox="0 0 512.001 512.001" style="enable-background:new 0 0 512.001 512.001;" xml:space="preserve">
<g>
	<g>
		<g>
			<path d="M242.431,137.273c12.06-31.183,8.006-66.224-11.571-94.174C198.852-2.627,135.94-13.725,90.204,18.291
				C9.259,74.962,50.316,202.079,147.883,202.079c0.679,0,1.363-0.025,2.044-0.039l210.81,301.07
				c10.061,14.37,32.231,10.604,37.09-6.15c17.947-61.896,7.04-127.686-29.929-180.504L242.431,137.273z M200.21,129.471
				c-8.742,16.02-24.808,27.472-43.173,30.23c-22.448,3.397-44.489-6.045-57.508-24.635c-18.76-26.798-12.219-63.866,14.579-82.629
				c26.795-18.757,63.85-12.221,82.605,14.571C209.738,85.601,211.077,109.536,200.21,129.471z"/>
			<path d="M421.722,18.298C375.997-13.719,313.079-2.63,281.059,43.099c-29.094,41.55-22.474,96.008,11.714,129.734l39.146,55.906
				c2.766,3.95,8.616,3.95,11.381,0l18.698-26.701C460.439,203.998,503.74,75.725,421.722,18.298z M412.391,135.06
				c-13.021,18.595-35.053,28.038-57.517,24.638c-18.214-2.74-34.344-14.035-43.157-30.229c-10.87-19.932-9.533-43.865,3.487-62.461
				h0.001c18.841-26.911,55.808-33.331,82.609-14.567C424.669,71.247,431.203,108.196,412.391,135.06z"/>
			<path d="M180.002,281.332c-2.766-3.95-8.616-3.95-11.381,0c-25.174,35.95-85.816,106.67-54.677,215.097
				c5.148,17.924,27.455,20.658,37.243,6.683l89.266-127.477c1.676-2.393,1.676-5.577,0-7.97L180.002,281.332z"/>
		</g>
	</g>
</g>
<g>
</g>
<g>
</g>
<g>
</g>
<g>
</g>
<g>
</g>
<g>
</g>
<g>
</g>
<g>
</g>
<g>
</g>
<g>
</g>
<g>
</g>
<g>
</g>
<g>
</g>
<g>
</g>
<g>
</g>
</svg>
